<?xml version="1.0" encoding="UTF-8" standalone="no"?>
<!DOCTYPE svg PUBLIC "-//W3C//DTD SVG 1.1//EN"
 "http://www.w3.org/Graphics/SVG/1.1/DTD/svg11.dtd">
<!-- Generated by graphviz version 2.38.0 (20140413.2041)
 -->
<!-- Title: %3 Pages: 1 -->
<svg width="164pt" height="260pt"
 viewBox="0.00 0.00 163.79 260.00" xmlns="http://www.w3.org/2000/svg" xmlns:xlink="http://www.w3.org/1999/xlink">
<g id="graph0" class="graph" transform="scale(1 1) rotate(0) translate(4 256)">
<title>%3</title>
<polygon fill="white" stroke="none" points="-4,4 -4,-256 159.794,-256 159.794,4 -4,4"/>
<!-- 0 -->
<g id="node1" class="node"><title>0</title>
<ellipse fill="none" stroke="black" cx="34.4469" cy="-234" rx="29.4969" ry="18"/>
<text text-anchor="middle" x="34.4469" y="-230.3" font-family="Times New Roman,serif" font-size="14.00">Usac</text>
</g>
<!-- 1 -->
<g id="node2" class="node"><title>1</title>
<ellipse fill="none" stroke="black" cx="34.4469" cy="-162" rx="34.394" ry="18"/>
<text text-anchor="middle" x="34.4469" y="-158.3" font-family="Times New Roman,serif" font-size="14.00">Memo</text>
</g>
<!-- 0&#45;&gt;1 -->
<g id="edge1" class="edge"><title>0&#45;&gt;1</title>
<path fill="none" stroke="black" d="M34.4469,-215.697C34.4469,-207.983 34.4469,-198.712 34.4469,-190.112"/>
<polygon fill="black" stroke="black" points="37.947,-190.104 34.4469,-180.104 30.947,-190.104 37.947,-190.104"/>
</g>
<!-- 2 -->
<g id="node3" class="node"><title>2</title>
<ellipse fill="none" stroke="black" cx="34.4469" cy="-90" rx="27" ry="18"/>
<text text-anchor="middle" x="34.4469" y="-86.3" font-family="Times New Roman,serif" font-size="14.00">Juan</text>
</g>
<!-- 1&#45;&gt;2 -->
<g id="edge3" class="edge"><title>1&#45;&gt;2</title>
<path fill="none" stroke="black" d="M28.5687,-144.055C27.7384,-136.231 27.5012,-126.748 27.8571,-117.977"/>
<polygon fill="black" stroke="black" points="31.3634,-118.013 28.5854,-107.789 24.3812,-117.514 31.3634,-118.013"/>
</g>
<!-- 3 -->
<g id="node4" class="node"><title>3</title>
<ellipse fill="none" stroke="black" cx="117.447" cy="-90" rx="38.1938" ry="18"/>
<text text-anchor="middle" x="117.447" y="-86.3" font-family="Times New Roman,serif" font-size="14.00">Memito</text>
</g>
<!-- 1&#45;&gt;3 -->
<g id="edge2" class="edge"><title>1&#45;&gt;3</title>
<path fill="none" stroke="black" d="M52.0491,-146.155C63.6347,-136.384 78.9899,-123.434 91.9097,-112.537"/>
<polygon fill="black" stroke="black" points="94.1961,-115.188 99.584,-106.065 89.6832,-109.837 94.1961,-115.188"/>
</g>
<!-- 2&#45;&gt;1 -->
<g id="edge4" class="edge"><title>2&#45;&gt;1</title>
<path fill="none" stroke="black" d="M40.3085,-107.789C41.1467,-115.591 41.3918,-125.067 41.0438,-133.848"/>
<polygon fill="black" stroke="black" points="37.5362,-133.834 40.3252,-144.055 44.5189,-134.325 37.5362,-133.834"/>
</g>
<!-- 4 -->
<g id="node5" class="node"><title>4</title>
<ellipse fill="none" stroke="black" cx="117.447" cy="-18" rx="27.8951" ry="18"/>
<text text-anchor="middle" x="117.447" y="-14.3" font-family="Times New Roman,serif" font-size="14.00">Jhon</text>
</g>
<!-- 3&#45;&gt;4 -->
<g id="edge5" class="edge"><title>3&#45;&gt;4</title>
<path fill="none" stroke="black" d="M117.447,-71.6966C117.447,-63.9827 117.447,-54.7125 117.447,-46.1124"/>
<polygon fill="black" stroke="black" points="120.947,-46.1043 117.447,-36.1043 113.947,-46.1044 120.947,-46.1043"/>
</g>
</g>
</svg>
