<?xml version="1.0" encoding="UTF-8" standalone="no"?>
<!DOCTYPE svg PUBLIC "-//W3C//DTD SVG 1.1//EN"
 "http://www.w3.org/Graphics/SVG/1.1/DTD/svg11.dtd">
<!-- Generated by graphviz version 2.38.0 (20140413.2041)
 -->
<!-- Title: %3 Pages: 1 -->
<svg width="355pt" height="476pt"
 viewBox="0.00 0.00 355.35 476.00" xmlns="http://www.w3.org/2000/svg" xmlns:xlink="http://www.w3.org/1999/xlink">
<g id="graph0" class="graph" transform="scale(1 1) rotate(0) translate(4 472)">
<title>%3</title>
<polygon fill="white" stroke="none" points="-4,4 -4,-472 351.347,-472 351.347,4 -4,4"/>
<!-- A -->
<g id="node1" class="node"><title>A</title>
<ellipse fill="none" stroke="black" cx="27" cy="-450" rx="27" ry="18"/>
<text text-anchor="middle" x="27" y="-446.3" font-family="Times New Roman,serif" font-size="14.00"> </text>
</g>
<!-- 0 -->
<g id="node2" class="node"><title>0</title>
<ellipse fill="none" stroke="black" cx="119" cy="-450" rx="46.5926" ry="18"/>
<text text-anchor="middle" x="119" y="-446.3" font-family="Times New Roman,serif" font-size="14.00">Biblioteca</text>
</g>
<!-- 1 -->
<g id="node3" class="node"><title>1</title>
<ellipse fill="none" stroke="black" cx="53" cy="-378" rx="29.4969" ry="18"/>
<text text-anchor="middle" x="53" y="-374.3" font-family="Times New Roman,serif" font-size="14.00">Usac</text>
</g>
<!-- 0&#45;&gt;1 -->
<g id="edge1" class="edge"><title>0&#45;&gt;1</title>
<path fill="none" stroke="black" d="M103.692,-432.765C94.953,-423.496 83.8631,-411.734 74.2859,-401.576"/>
<polygon fill="black" stroke="black" points="76.7277,-399.064 67.321,-394.189 71.6346,-403.866 76.7277,-399.064"/>
</g>
<!-- 3 -->
<g id="node5" class="node"><title>3</title>
<ellipse fill="none" stroke="black" cx="142" cy="-162" rx="38.1938" ry="18"/>
<text text-anchor="middle" x="142" y="-158.3" font-family="Times New Roman,serif" font-size="14.00">Cobros</text>
</g>
<!-- 0&#45;&gt;3 -->
<g id="edge4" class="edge"><title>0&#45;&gt;3</title>
<path fill="none" stroke="black" d="M125.712,-431.993C129.626,-421.684 134.471,-408.207 138,-396 160.33,-318.764 166.353,-295.73 156,-216 154.867,-207.277 152.728,-197.945 150.456,-189.58"/>
<polygon fill="black" stroke="black" points="153.816,-188.598 147.678,-179.962 147.091,-190.541 153.816,-188.598"/>
</g>
<!-- 4 -->
<g id="node6" class="node"><title>4</title>
<ellipse fill="none" stroke="black" cx="111" cy="-306" rx="34.394" ry="18"/>
<text text-anchor="middle" x="111" y="-302.3" font-family="Times New Roman,serif" font-size="14.00">Memo</text>
</g>
<!-- 0&#45;&gt;4 -->
<g id="edge3" class="edge"><title>0&#45;&gt;4</title>
<path fill="none" stroke="black" d="M113.451,-431.871C109.529,-407.67 106.732,-363.211 107.084,-334.393"/>
<polygon fill="black" stroke="black" points="110.589,-334.286 107.378,-324.189 103.592,-334.085 110.589,-334.286"/>
</g>
<!-- 1&#45;&gt;4 -->
<g id="edge2" class="edge"><title>1&#45;&gt;4</title>
<path fill="none" stroke="black" d="M65.8721,-361.465C73.3509,-352.439 82.928,-340.88 91.3339,-330.735"/>
<polygon fill="black" stroke="black" points="94.0767,-332.91 97.7618,-322.977 88.6865,-328.444 94.0767,-332.91"/>
</g>
<!-- 2 -->
<g id="node4" class="node"><title>2</title>
<ellipse fill="none" stroke="black" cx="218" cy="-450" rx="34.394" ry="18"/>
<text text-anchor="middle" x="218" y="-446.3" font-family="Times New Roman,serif" font-size="14.00">Memo</text>
</g>
<!-- 6 -->
<g id="node8" class="node"><title>6</title>
<ellipse fill="none" stroke="black" cx="141" cy="-90" rx="35.9954" ry="18"/>
<text text-anchor="middle" x="141" y="-86.3" font-family="Times New Roman,serif" font-size="14.00">Ventas</text>
</g>
<!-- 3&#45;&gt;6 -->
<g id="edge8" class="edge"><title>3&#45;&gt;6</title>
<path fill="none" stroke="black" d="M141.753,-143.697C141.643,-135.983 141.51,-126.712 141.387,-118.112"/>
<polygon fill="black" stroke="black" points="144.887,-118.053 141.244,-108.104 137.888,-118.153 144.887,-118.053"/>
</g>
<!-- 7 -->
<g id="node9" class="node"><title>7</title>
<ellipse fill="none" stroke="black" cx="109" cy="-234" rx="38.1938" ry="18"/>
<text text-anchor="middle" x="109" y="-230.3" font-family="Times New Roman,serif" font-size="14.00">Memito</text>
</g>
<!-- 3&#45;&gt;7 -->
<g id="edge7" class="edge"><title>3&#45;&gt;7</title>
<path fill="none" stroke="black" d="M139.824,-180.124C136.752,-188.5 132.124,-198.743 127.297,-207.975"/>
<polygon fill="black" stroke="black" points="124.215,-206.317 122.455,-216.765 130.346,-209.695 124.215,-206.317"/>
</g>
<!-- 4&#45;&gt;0 -->
<g id="edge5" class="edge"><title>4&#45;&gt;0</title>
<path fill="none" stroke="black" d="M116.559,-324.189C120.479,-348.424 123.272,-392.888 122.915,-421.679"/>
<polygon fill="black" stroke="black" points="119.411,-421.774 122.62,-431.871 126.408,-421.977 119.411,-421.774"/>
</g>
<!-- 4&#45;&gt;7 -->
<g id="edge6" class="edge"><title>4&#45;&gt;7</title>
<path fill="none" stroke="black" d="M110.506,-287.697C110.285,-279.983 110.02,-270.712 109.775,-262.112"/>
<polygon fill="black" stroke="black" points="113.273,-262 109.489,-252.104 106.276,-262.2 113.273,-262"/>
</g>
<!-- 5 -->
<g id="node7" class="node"><title>5</title>
<ellipse fill="none" stroke="black" cx="309" cy="-450" rx="38.1938" ry="18"/>
<text text-anchor="middle" x="309" y="-446.3" font-family="Times New Roman,serif" font-size="14.00">Memito</text>
</g>
<!-- 8 -->
<g id="node10" class="node"><title>8</title>
<ellipse fill="none" stroke="black" cx="108" cy="-18" rx="27.8951" ry="18"/>
<text text-anchor="middle" x="108" y="-14.3" font-family="Times New Roman,serif" font-size="14.00">Jhon</text>
</g>
<!-- 6&#45;&gt;8 -->
<g id="edge11" class="edge"><title>6&#45;&gt;8</title>
<path fill="none" stroke="black" d="M133.179,-72.411C129.275,-64.1292 124.465,-53.9249 120.098,-44.662"/>
<polygon fill="black" stroke="black" points="123.194,-43.0227 115.764,-35.4699 116.863,-46.0077 123.194,-43.0227"/>
</g>
<!-- 7&#45;&gt;3 -->
<g id="edge9" class="edge"><title>7&#45;&gt;3</title>
<path fill="none" stroke="black" d="M111.242,-215.697C114.296,-207.403 118.856,-197.311 123.618,-188.187"/>
<polygon fill="black" stroke="black" points="126.839,-189.592 128.598,-179.145 120.708,-186.215 126.839,-189.592"/>
</g>
<!-- 7&#45;&gt;8 -->
<g id="edge10" class="edge"><title>7&#45;&gt;8</title>
<path fill="none" stroke="black" d="M103.322,-216.038C100.178,-205.745 96.5931,-192.269 95,-180 93.1042,-165.4 93.7636,-90.8204 96,-72 97.0176,-63.4367 98.8383,-54.2317 100.759,-45.9349"/>
<polygon fill="black" stroke="black" points="104.206,-46.5742 103.192,-36.028 97.408,-44.9045 104.206,-46.5742"/>
</g>
</g>
</svg>
